<svg xmlns="http://www.w3.org/2000/svg" version="1.1" xmlns:xlink="http://www.w3.org/1999/xlink" xmlns:svgjs="http://svgjs.dev/svgjs" width="100%" height="100%" viewBox="0 0 1000 600"><rect width="1000" height="600" x="0" y="0" fill="#2e8bc0"/><g><circle r="166.66666666666666" cx="328.47960917154944" cy="350.70179316172994" fill="#fcedda" transform="matrix(0.7724972860752083,0,0,0.7724972860752083,0,29.083838991329685)"/><path d="M329.0931938841366 425.70181681648614L281.205063805857 291.3125411677263Q279.3500408886411 286.17555462774396 276.49615947753983 284.2063764540841Q273.6137392523275 282.2657370945352 269.07606780867644 282.2657370945352L269.07606780867644 282.2657370945352L256.1479850163876 282.2657370945352L256.1479850163876 275.7018098490022L321.9014127281614 275.7018098490022L321.9014127281614 282.2657370945352L308.34547602543023 282.2657370945352Q305.46305580021794 282.2657370945352 303.408261184225 283.80683305652985Q301.3534665682321 285.34792901852455 301.3534665682321 287.40272363451754L301.3534665682321 287.40272363451754Q301.3534665682321 289.6572899492875 302.18109217745143 291.9118562640575L302.18109217745143 291.9118562640575L337.31237234810834 390.7703083446063L364.42424575357063 307.3228158840045Q366.90712258122875 299.3319479329209 366.90712258122875 293.1675640849421L366.90712258122875 293.1675640849421Q366.90712258122875 288.8296643400681 364.5384010100147 285.5477007173016Q362.1696794388006 282.2657370945352 356.404838988376 282.2657370945352L356.404838988376 282.2657370945352L345.331779113303 282.2657370945352L345.331779113303 275.7018098490022L400.8112337451121 275.7018098490022L400.8112337451121 282.2657370945352L393.1913703774716 282.2657370945352Q385.9995892214964 282.2657370945352 382.08977168828767 286.4894815829651Q378.2084929691899 290.68468725728394 375.9253878403088 297.277153316928L375.9253878403088 297.277153316928L334.23018042411894 425.70181681648614L329.0931938841366 425.70181681648614Z " fill="#b1d4e0" transform="matrix(0.7724972860752083,0,0,0.7724972860752083,0,29.083838991329685)"/><path d="M578.479611804137 388.11409406150915L578.479611804137 383.0702339623092L589.8611917671144 383.0702339623092Q594.115578111657 383.0702339623092 594.115578111657 378.7939177912483L594.115578111657 378.7939177912483L594.115578111657 285.0000497726469Q594.115578111657 282.80706712082076 593.0848762652987 281.77636527446253Q592.0761042454587 280.7456634281043 589.8611917671144 280.7456634281043L589.8611917671144 280.7456634281043L578.479611804137 280.7456634281043L578.479611804137 275.70180332890425L626.8129494503838 275.70180332890425L626.8129494503838 280.7456634281043L612.9094394378064 280.7456634281043Q610.6945269594621 280.7456634281043 609.6638251131039 281.77636527446253Q608.6550530932639 282.80706712082076 608.6550530932639 285.0000497726469L608.6550530932639 285.0000497726469L608.6550530932639 378.7939177912483Q608.6550530932639 383.0702339623092 612.9094394378064 383.0702339623092L612.9094394378064 383.0702339623092L628.8524233165821 383.0702339623092Q637.2296170465577 383.0702339623092 643.8524246550725 379.27637397465Q650.4971620901055 375.48251398699097 653.8085658943628 368.2237414094466L653.8085658943628 368.2237414094466Q656.3304959439629 362.8509339124728 657.9971627593507 356.77637196691444Q659.6418997482202 350.7018100213562 660.4313735028777 346.4254938502953Q661.2208472575351 342.17110750575273 661.3743560431628 341.0526863533215L661.3743560431628 341.0526863533215L665.3217248164498 341.0526863533215L663.9182159192811 388.11409406150915L578.479611804137 388.11409406150915ZM713.6550624626966 390.00005914207964Q704.9708511614654 390.00005914207964 697.6901487574028 384.86847973680653Q690.4313761798584 379.73690033153355 686.2427793148706 371.0526890303023Q682.0761122764011 362.36847772907095 682.0761122764011 352.105318918525L682.0761122764011 352.105318918525Q682.0761122764011 341.8421601079789 686.2427793148706 333.15794880674764Q690.4313761798584 324.4737375055163 697.6901487574028 319.3421581002433Q704.9708511614654 314.2105786949702 713.6550624626966 314.2105786949702L713.6550624626966 314.2105786949702Q722.3392737639278 314.2105786949702 729.5980463414722 319.3421581002433Q736.8568189190166 324.4737375055163 741.0454157840044 333.15794880674764Q745.2340126489921 341.8421601079789 745.2340126489921 352.105318918525L745.2340126489921 352.105318918525Q745.2340126489921 362.36847772907095 741.0454157840044 371.0526890303023Q736.8568189190166 379.73690033153355 729.5980463414722 384.86847973680653Q722.3392737639278 390.00005914207964 713.6550624626966 390.00005914207964L713.6550624626966 390.00005914207964ZM713.6550624626966 386.2281289809388Q723.1287475185852 386.2281289809388 727.2296250775 377.3026895880066Q731.3305026364148 368.37725019507445 731.3305026364148 352.105318918525L731.3305026364148 352.105318918525Q731.3305026364148 335.8553174684937 727.2296250775 326.92987807556153Q723.1287475185852 318.00443868262937 713.6550624626966 318.00443868262937L713.6550624626966 318.00443868262937Q704.181377406808 318.00443868262937 700.0585700213749 326.92987807556153Q695.9576924624602 335.8553174684937 695.9576924624602 352.105318918525L695.9576924624602 352.105318918525Q695.9576924624602 368.37725019507445 700.0585700213749 377.3026895880066Q704.181377406808 386.2281289809388 713.6550624626966 386.2281289809388L713.6550624626966 386.2281289809388ZM787.8655954004912 390.00005914207964L761.8129614967974 327.80707113629194Q760.2340139874825 323.6842637508589 758.5673471720947 321.79829867028855Q756.9006803567069 319.91233358971806 753.5892765524495 319.91233358971806L753.5892765524495 319.91233358971806L749.0059428101331 319.91233358971806L749.0059428101331 316.118473602059L783.1287528725468 316.118473602059L783.1287528725468 319.91233358971806L778.6989279158581 319.91233358971806Q776.8129628352877 319.91233358971806 775.2340153259729 320.921105609558Q773.6550678166582 321.9518074559163 773.6550678166582 323.6842637508589L773.6550678166582 323.6842637508589Q773.6550678166582 326.381632412605 774.5980503569434 328.90356246220495L774.5980503569434 328.90356246220495L792.2734905306615 371.535145213704L805.0585793908076 334.1228611735511Q805.6945443598372 332.2149662664624 806.2427900227938 329.8465450024902Q806.8129655122684 327.4781237385181 806.8129655122684 326.0526850148311L806.8129655122684 326.0526850148311Q806.8129655122684 323.3772461796033 805.2340180029537 321.64478988466067Q803.655070493639 319.91233358971806 801.1112106175207 319.91233358971806L801.1112106175207 319.91233358971806L797.3392804563798 319.91233358971806L797.3392804563798 316.118473602059L826.0673531953015 316.118473602059L826.0673531953015 319.91233358971806L822.4270019932702 319.91233358971806Q818.962089403385 319.91233358971806 816.0454224764563 322.1930355476172Q813.1287555495276 324.4737375055163 811.5498080402128 329.2105800334607L811.5498080402128 329.2105800334607L790.6945430213468 390.00005914207964L787.8655954004912 390.00005914207964ZM862.3831459095413 390.00005914207964Q847.6901621423067 390.00005914207964 838.7866525758927 380.0658477293074Q829.8612131829607 370.10970649001706 829.8612131829607 352.4342663162988L829.8612131829607 352.4342663162988Q829.8612131829607 342.3246162913806 833.8085819562475 333.5526856840763Q837.7559507295346 324.80268490329024 844.773495215378 319.5175967123894Q851.8129695277396 314.2105786949702 860.497180828971 314.2105786949702L860.497180828971 314.2105786949702Q870.1243746704874 314.2105786949702 876.2866559221187 319.42987740631634Q882.4270073472318 324.64917611766236 885.1901654885326 332.6097031437911Q887.9533236298334 340.592159996438 887.9533236298334 348.9474238998954L887.9533236298334 348.9474238998954Q887.9533236298334 350.7018100213562 886.8568323039206 351.25005568431277Q885.7603409780074 351.79830134726933 883.0629723162613 351.79830134726933L883.0629723162613 351.79830134726933L843.7427933690198 351.79830134726933Q843.7427933690198 367.5877764404171 848.2603376317813 376.90795271067793Q852.755952068025 386.2281289809388 863.0191108785709 386.2281289809388L863.0191108785709 386.2281289809388Q870.2778834561153 386.2281289809388 876.6813927994474 380.701812698337Q883.0629723162613 375.1754964157353 884.795428611204 363.48689888150227L884.795428611204 363.48689888150227L888.589288598863 363.48689888150227Q887.6463060585779 375.00005780358924 880.6287615727344 382.50005847283444Q873.5892872603727 390.00005914207964 862.3831459095413 390.00005914207964L862.3831459095413 390.00005914207964ZM843.7427933690198 348.00444135961015L874.37876101503 348.00444135961015Q874.37876101503 335.372861285092 871.0673572107726 326.6886499838606Q867.7559534065153 318.00443868262937 860.168233431197 318.00443868262937L860.168233431197 318.00443868262937Q852.1199870989954 318.00443868262937 847.9313902340075 326.77636928993365Q843.7427933690198 335.52637007071974 843.7427933690198 348.00444135961015L843.7427933690198 348.00444135961015ZM930.2778888100768 390.00005914207964Q922.8656074469047 390.00005914207964 916.4620981035725 385.0439183489526Q910.0585887602404 380.0658477293074 906.2866585990995 371.38163642807615Q902.4927986114404 362.6974251268449 902.4927986114404 352.105318918525L902.4927986114404 352.105318918525Q902.4927986114404 341.53514253672324 906.2866585990995 332.8509312354919Q910.0585887602404 324.16671993426064 916.4620981035725 319.1886493146154Q922.8656074469047 314.2105786949702 930.2778888100768 314.2105786949702L930.2778888100768 314.2105786949702Q936.4401700617082 314.2105786949702 941.3305213752803 318.2456667743303Q946.2208726888525 322.28075485369027 948.5892939528246 327.9605799219198L948.5892939528246 327.9605799219198L949.2252589218542 327.80707113629194L949.2252589218542 282.96057590644864Q949.2252589218542 281.05268099935995 948.4357851671969 280.2632072447025Q947.6463114125395 279.4737334900451 945.760346331969 279.4737334900451L945.760346331969 279.4737334900451L934.3787663689916 279.4737334900451L934.3787663689916 275.70180332890425L960.5849090583133 275.70180332890425L960.5849090583133 380.8553214839649Q960.5849090583133 382.74128656453524 961.3743828129707 383.5307603191926Q962.163856567628 384.3202340738501 964.0717514747166 384.3202340738501L964.0717514747166 384.3202340738501L972.2735065925463 384.3202340738501L972.2735065925463 388.11409406150915L949.2252589218542 388.11409406150915L949.2252589218542 376.4254965272762L948.5892939528246 376.27198774164833Q945.5849077198229 382.5877777789075 940.9357844979515 386.2939184604935Q936.2866612760804 390.00005914207964 930.2778888100768 390.00005914207964L930.2778888100768 390.00005914207964ZM932.0103451050194 385.5921640119092Q936.7471876329638 385.5921640119092 940.6945564062507 382.10532159550576Q944.6419251795377 378.64040900562054 946.944556963955 372.5658470600622Q949.2252589218542 366.49128511450397 949.2252589218542 359.38602132258757L949.2252589218542 359.38602132258757L949.2252589218542 344.8465463409806Q949.2252589218542 337.74128254906407 946.944556963955 331.66672060350584Q944.6419251795377 325.5921586579476 940.6945564062507 322.1053162415442Q936.7471876329638 318.64040365165897 932.0103451050194 318.64040365165897L932.0103451050194 318.64040365165897Q924.2691163440734 318.64040365165897 920.3217475707864 327.3246149528902Q916.3743787974995 336.00882625412146 916.3743787974995 352.105318918525L916.3743787974995 352.105318918525Q916.3743787974995 368.2237414094466 920.3217475707864 376.90795271067793Q924.2691163440734 385.5921640119092 932.0103451050194 385.5921640119092L932.0103451050194 385.5921640119092ZM1005.124386716901 390.00005914207964Q996.7471929869253 390.00005914207964 990.6726310413671 385.8991815831648Q984.5980690958088 381.79830402425 984.5980690958088 371.38163642807615L984.5980690958088 371.38163642807615Q984.5980690958088 363.3333900958745 988.6989466547236 358.75005635355797Q992.7998242136384 354.1667226112414 998.2603510166853 352.193038224598Q1003.698947993214 350.2193538379545 1011.4401767541601 348.7939151142675L1011.4401767541601 348.7939151142675L1025.9577219092487 346.1184762790398L1025.9577219092487 332.6974224498641Q1025.9577219092487 318.00443868262937 1011.2866679685322 318.00443868262937L1011.2866679685322 318.00443868262937Q1005.9138604715583 318.00443868262937 1001.4840355148697 320.76759682393026Q997.0761403846993 323.53075496523115 997.0761403846993 327.0175973816346L997.0761403846993 327.0175973816346Q997.0761403846993 328.5965448909493 997.5366667415828 329.3860186456068L997.5366667415828 329.3860186456068Q997.8656141393567 329.8465450024902 998.567368587941 330.3290011858919Q999.2691230365253 330.78952754277543 999.905088005555 330.9649661549215L999.905088005555 330.9649661549215Q1002.7559654529289 331.7544399095789 1004.2471936561706 333.15794880674764Q1005.7603516859306 334.5833875304345 1005.7603516859306 337.1053175800346L1005.7603516859306 337.1053175800346Q1005.7603516859306 340.43865121081024 1003.786667299287 341.8421601079789Q1001.8129829126435 343.26759883166585 998.8085966796418 343.26759883166585L998.8085966796418 343.26759883166585Q995.3217542632384 343.26759883166585 992.4928066423827 340.592159996438Q989.6419291950087 337.89479133469194 989.6419291950087 332.8509312354919L989.6419291950087 332.8509312354919Q989.6419291950087 327.0175973816346 992.8875435197115 322.7412812105737Q996.1112280178958 318.4868948660311 1001.2428074231689 316.3597016937598Q1006.3743868284419 314.2105786949702 1011.7471943254156 314.2105786949702L1011.7471943254156 314.2105786949702Q1022.1638619215896 314.2105786949702 1029.751581896908 319.67110549801714Q1037.339301872226 325.1097024745459 1037.339301872226 336.64479122315106L1037.339301872226 336.64479122315106L1037.339301872226 375.48251398699097Q1037.339301872226 383.37725153356484 1042.2296531857983 383.37725153356484L1042.2296531857983 383.37725153356484Q1046.177021959085 383.37725153356484 1047.9094782540278 378.7939177912483Q1049.6419345489703 374.21058404893176 1049.6419345489703 367.5877764404171L1049.6419345489703 367.5877764404171L1052.4928119963442 367.5877764404171Q1052.4928119963442 377.0614614963057 1049.7296538550434 383.5307603191926Q1046.9664957137427 390.00005914207964 1039.861231921826 390.00005914207964L1039.861231921826 390.00005914207964Q1033.0629857011652 390.00005914207964 1029.6638625908347 385.98690088923786Q1026.2866693070227 381.9518128098779 1025.9577219092487 374.84654901796137L1025.9577219092487 374.84654901796137L1025.1682481545913 374.5395314467057Q1022.7998268906192 380.0658477293074 1017.5147386997182 385.0439183489526Q1012.2296505088175 390.00005914207964 1005.124386716901 390.00005914207964L1005.124386716901 390.00005914207964ZM1007.646316766501 384.3202340738501Q1014.7515805584175 384.3202340738501 1018.7866686377774 378.7281283116936Q1022.7998268906192 373.11409272301876 1025.9577219092487 364.4298814217875L1025.9577219092487 364.4298814217875L1025.9577219092487 349.4298800832971L1012.2296505088175 352.4342663162988Q1004.6419305334991 354.01321382561366 1001.2428074231689 358.6623370474849Q997.8656141393567 363.3333900958745 997.8656141393567 371.84216278495967L997.8656141393567 371.84216278495967Q997.8656141393567 379.12286518902226 1000.8480705458401 381.71058471817696Q1003.8524567788418 384.3202340738501 1007.646316766501 384.3202340738501L1007.646316766501 384.3202340738501ZM1073.9621121577215 425.70181671380817Q1067.7998309060904 425.70181671380817 1063.8524621328033 421.75444794052123L1063.8524621328033 421.75444794052123Q1061.8129882666053 419.84655303343254 1060.6287776346192 417.2369036777595Q1059.444567002633 414.6491841486047 1059.444567002633 411.7983067012308L1059.444567002633 411.7983067012308Q1059.444567002633 409.73690300851433 1060.1463214512173 407.9386572340169Q1060.8480758998016 406.11848163300124 1061.966497052233 405.1754990927161L1061.966497052233 405.1754990927161Q1064.334918316205 402.8070778287439 1067.3393045492069 402.8070778287439L1067.3393045492069 402.8070778287439Q1070.9577259247199 402.8070778287439 1072.7779015257356 405.08777978664307Q1074.5980771267511 407.3684817445421 1074.5980771267511 410.85532416094566L1074.5980771267511 410.85532416094566Q1074.5980771267511 412.74128924151603 1073.3261471886922 415.263219291116L1073.3261471886922 415.263219291116Q1072.3831646484068 416.84216680043085 1072.3831646484068 418.2676055241178L1072.3831646484068 418.2676055241178Q1072.3831646484068 420.6360267880899 1075.5410596670365 420.6360267880899L1075.5410596670365 420.6360267880899Q1080.2779021949807 420.6360267880899 1083.5235165196832 416.9298861065039Q1086.7472010178676 413.22374542491775 1088.3261485271823 408.1579554991995L1088.3261485271823 408.1579554991995L1092.6024646982432 394.4298840987683L1070.1682521700625 329.2105800334607Q1068.282287089492 324.16671993426064 1066.5498307945495 322.03952676198935Q1064.7954446730887 319.91233358971806 1060.8480758998016 319.91233358971806L1060.8480758998016 319.91233358971806L1055.650707014974 319.91233358971806L1055.650707014974 316.118473602059L1091.330534760184 316.118473602059L1091.330534760184 319.91233358971806L1086.2866746609843 319.91233358971806Q1084.3787797538955 319.91233358971806 1082.7998322445808 320.921105609558Q1081.220884735266 321.9518074559163 1081.220884735266 323.6842637508589L1081.220884735266 323.6842637508589Q1081.220884735266 326.381632412605 1082.1638672755512 328.90356246220495L1082.1638672755512 328.90356246220495L1098.5893073377285 377.36847906756134L1111.7033435956487 334.1228611735511Q1112.339308564678 332.2149662664624 1112.8875542276346 329.8465450024902Q1113.4357998905912 327.4781237385181 1113.4357998905912 326.0526850148311L1113.4357998905912 326.0526850148311Q1113.4357998905912 323.3772461796033 1111.8568523812764 321.64478988466067Q1110.2779048719615 319.91233358971806 1107.7559748223616 319.91233358971806L1107.7559748223616 319.91233358971806L1103.9621148347023 319.91233358971806L1103.9621148347023 316.118473602059L1132.6901875736241 316.118473602059L1132.6901875736241 319.91233358971806L1129.0717661981112 319.91233358971806Q1125.5849237817076 319.91233358971806 1122.668256854779 322.1930355476172Q1119.75158992785 324.4737375055163 1118.1726424185354 329.2105800334607L1118.1726424185354 329.2105800334607L1092.755973483871 410.0658504062882Q1091.0235171889285 415.8991842601456 1086.1112360488382 420.7895355737178Q1081.220884735266 425.70181671380817 1073.9621121577215 425.70181671380817L1073.9621121577215 425.70181671380817Z " fill="#fcedda" transform="matrix(0.7724972860752083,0,0,0.7724972860752083,0,29.083838991329685)"/></g></svg>